<svg width="242" height="190" viewBox="0 0 242 190" fill="none" xmlns="http://www.w3.org/2000/svg">
<g clip-path="url(#clip0_2978_3442)">
<path d="M120.501 1L87.1133 20.6789V21.4227H93.3136V46.5158L105.714 49.242V79.5676L100.375 76.423V53.6376L93.3136 52.0864V80.5862L120.289 96.478L120.505 96.6048L147.692 80.5862V51.0848L135.291 48.3586V24.3222L120.501 15.6112L105.71 24.3222V41.8708L100.371 40.7001V21.1818L120.501 9.3221L140.63 21.1818V43.9672L147.692 45.5184V21.427H153.892V20.6831L120.501 1ZM112.768 83.7265V77.4374L120.497 81.9894L135.287 73.2784V55.7297L140.626 56.9047V76.423L120.497 88.2827L112.768 83.7265ZM112.768 69.1153V50.7889L128.225 54.1828V69.1153L120.497 73.6673L112.768 69.1153ZM112.768 43.4178V28.4853L120.497 23.9333L128.225 28.4853V46.8117L112.768 43.4178Z" fill="#4080C1"/>
<path d="M56.6903 166.34V170.782H51.2396V187.718H46.8865V170.782H41.4648V166.34H56.6944H56.6903Z" fill="#132847"/>
<path d="M63.7797 166.34V174.641H70.5723V166.34H74.8716V187.722H70.5723V178.889H63.7797V187.722H59.4805V166.34H63.7797Z" fill="#132847"/>
<path d="M83.2563 166.34V187.722H78.957V166.34H83.2563Z" fill="#132847"/>
<path d="M87.6631 166.062L100.205 178.222V166.346H104.342V188.007H104.015L91.4695 175.851V187.728H87.3359V166.067H87.6631V166.062Z" fill="#132847"/>
<path d="M112.725 166.34V174.835L120.064 166.34H124.774L118.913 173.132L125.076 187.722H120.226L115.736 176.822L112.725 180.317V187.722H108.426V166.34H112.725Z" fill="#132847"/>
<path d="M135.949 166.062L148.494 178.222V166.346H152.628V188.007H152.296L139.755 175.851V187.728H135.617V166.067H135.949V166.062Z" fill="#132847"/>
<path d="M170.317 166.34V170.782H161.006V174.612H170.205V178.859H161.006V183.276H170.4V187.718H156.707V166.336H170.317V166.34Z" fill="#132847"/>
<path d="M176.783 166.341L180.208 177.829L186.044 166.062H186.4L191.905 177.829L195.628 166.341H199.927L192.642 188.003H192.286L186.098 174.309L179.607 188.003H179.276L172.293 166.341H176.783Z" fill="#132847"/>
<path d="M11 145.538L17.6518 140.766C19.4742 143.754 22.1209 145.119 25.6911 145.119C29.5969 145.119 32.2145 143.492 32.2145 141.239C32.2145 138.145 27.2567 135.707 22.9161 133.509C18.2689 131.15 13.1538 128.555 13.1538 121.818C13.1538 114.506 19.2174 109.684 26.8177 109.684C32.4672 109.684 37.1433 112.067 39.0196 117.182L32.8814 121.56C31.6471 119.045 29.2614 118.023 26.9502 118.023C23.8439 118.023 21.5286 119.857 21.5286 122.034C21.5286 124.548 24.6598 125.415 29.4146 127.697C36.2735 130.998 40.5893 134.565 40.5893 141.066C40.5893 148.771 34.4221 153.674 25.5627 153.674C18.7825 153.674 13.7709 150.791 11 145.546" fill="#132847"/>
<path d="M64.4953 109.527H64.2343L44.457 152.824H53.449L59.3345 139.688L64.3876 128.395L69.4282 139.688L72.6547 146.928H72.6671L75.2806 152.824H84.2974L64.4953 109.527Z" fill="#132847"/>
<path d="M123.844 110.57V152.823H115.548V135.892H100.675V152.823H92.3789V110.57H100.675V127.477H115.548V110.57H123.844Z" fill="#132847"/>
<path d="M143.306 118.935V127.189H157.587V135.655H143.306V144.383H159.948V152.823H134.98V110.57H159.948V118.935H143.306Z" fill="#132847"/>
<path d="M178.329 118.935V127.189H192.61V135.655H178.329V144.383H194.975V152.823H170.004V110.57H194.975V118.935H178.329Z" fill="#132847"/>
<path d="M229.998 144.383V152.823H205.031V110.57H213.352V144.383H229.998Z" fill="#132847"/>
</g>
<defs>
<clipPath id="clip0_2978_3442">
<rect width="219" height="187" fill="white" transform="translate(11 1)"/>
</clipPath>
</defs>
</svg>
